<svg version="1.1" id="Layer_1" xmlns="http://www.w3.org/2000/svg" xmlns:xlink="http://www.w3.org/1999/xlink" x="0px" y="0px"
	 width="100%" viewBox="0 0 56 51" enable-background="new 0 0 56 51" xml:space="preserve">
<path fill="#FEFDFF" opacity="1.000000" stroke="none" 
	d="
M32.000038,52.000000 
	C21.333353,52.000000 11.166688,52.000000 1.000017,52.000000 
	C1.000011,35.000011 1.000011,18.000019 1.000006,1.000022 
	C19.666655,1.000014 38.333309,1.000014 56.999977,1.000007 
	C56.999985,17.999987 56.999985,34.999973 56.999992,51.999977 
	C48.833351,52.000000 40.666702,52.000000 32.000038,52.000000 
M23.717070,48.085518 
	C32.589436,50.264248 41.122089,46.981823 45.809891,39.586639 
	C50.249523,32.582951 49.890198,23.774109 44.895206,17.163185 
	C39.617760,10.178429 30.928493,7.430670 22.690371,10.141474 
	C15.161554,12.618875 9.516812,20.048113 9.024489,28.127607 
	C8.513666,36.510742 13.714733,43.920841 23.717070,48.085518 
z"/>
<path fill="#802FE9" opacity="1.000000" stroke="none" 
	d="
M23.322823,48.011322 
	C13.714733,43.920841 8.513666,36.510742 9.024489,28.127607 
	C9.516812,20.048113 15.161554,12.618875 22.690371,10.141474 
	C30.928493,7.430670 39.617760,10.178429 44.895206,17.163185 
	C49.890198,23.774109 50.249523,32.582951 45.809891,39.586639 
	C41.122089,46.981823 32.589436,50.264248 23.322823,48.011322 
M36.821953,35.448254 
	C38.393936,31.039703 39.965916,26.631153 41.537899,22.222605 
	C40.904148,21.942396 40.270397,21.662186 39.636646,21.381977 
	C38.264046,24.576698 36.891449,27.771420 35.288078,31.503252 
	C33.549881,27.870316 32.031216,24.696218 30.512552,21.522120 
	C29.957067,21.819887 29.401583,22.117653 28.846098,22.415419 
	C30.235666,26.420782 31.500025,30.478024 33.119949,34.387947 
	C33.445786,35.174397 35.121761,35.401466 36.821953,35.448254 
M20.894920,24.966513 
	C20.894920,28.619905 20.894920,32.273296 20.894920,37.243610 
	C26.786051,32.629730 19.591732,24.439455 27.647005,22.233761 
	C24.148445,22.233761 20.649883,22.233761 17.151321,22.233761 
	C17.103081,22.577539 17.054840,22.921320 17.006599,23.265099 
	C18.146891,23.579121 19.287182,23.893143 20.894920,24.966513 
z"/>
<path fill="#EFEAFB" opacity="1.000000" stroke="none" 
	d="
M36.498596,35.667351 
	C35.121761,35.401466 33.445786,35.174397 33.119949,34.387947 
	C31.500025,30.478024 30.235666,26.420782 28.846098,22.415419 
	C29.401583,22.117653 29.957067,21.819887 30.512552,21.522120 
	C32.031216,24.696218 33.549881,27.870316 35.288078,31.503252 
	C36.891449,27.771420 38.264046,24.576698 39.636646,21.381977 
	C40.270397,21.662186 40.904148,21.942396 41.537899,22.222605 
	C39.965916,26.631153 38.393936,31.039703 36.498596,35.667351 
z"/>
<path fill="#F0E5F9" opacity="1.000000" stroke="none" 
	d="
M20.661198,24.586840 
	C19.287182,23.893143 18.146891,23.579121 17.006599,23.265099 
	C17.054840,22.921320 17.103081,22.577539 17.151321,22.233761 
	C20.649883,22.233761 24.148445,22.233761 27.647005,22.233761 
	C19.591732,24.439455 26.786051,32.629730 20.894920,37.243610 
	C20.894920,32.273296 20.894920,28.619905 20.661198,24.586840 
z"/>
</svg>